<svg id="Capa_1" enable-background="new 0 0 510.301 510.301" height="512" viewBox="0 0 510.301 510.301" width="512" xmlns="http://www.w3.org/2000/svg"><g><path d="m446.047 85.88c-2.749-3.097-7.489-3.38-10.588-.632-3.098 2.749-3.381 7.49-.632 10.588 38.997 43.948 60.474 100.527 60.474 159.314 0 64.146-24.98 124.454-70.338 169.812s-105.666 70.338-169.812 70.338-124.454-24.98-169.812-70.338-70.339-105.665-70.339-169.812 24.98-124.453 70.338-169.812 105.666-70.338 169.812-70.338c57.991 0 113.983 20.956 157.664 59.008 3.123 2.72 7.86 2.395 10.582-.729 2.721-3.123 2.395-7.86-.729-10.582-46.412-40.43-105.904-62.697-167.517-62.697-68.153 0-132.227 26.541-180.418 74.732s-74.732 112.265-74.732 180.418 26.541 132.227 74.732 180.418 112.265 74.732 180.418 74.732 132.227-26.541 180.418-74.732 74.732-112.265 74.732-180.418c.001-62.461-22.819-122.575-64.253-169.27z"/><path d="m92.307 135.028c-3.42-2.337-8.087-1.459-10.423 1.961-23.843 34.897-36.446 75.757-36.446 118.161 0 47.582 16.387 94.187 46.142 131.228 1.334 1.661 3.312 2.676 5.44 2.792.136.007.272.011.408.011 1.983 0 3.893-.787 5.303-2.197l284.255-284.255c1.507-1.506 2.301-3.583 2.186-5.71s-1.131-4.105-2.792-5.44c-37.042-29.755-83.646-46.142-131.228-46.142-29.362 0-57.768 5.953-84.428 17.695-25.746 11.339-48.639 27.502-68.041 48.042-2.844 3.011-2.709 7.758.302 10.603 3.01 2.844 7.758 2.709 10.602-.302 18.021-19.077 39.278-34.087 63.183-44.615 24.744-10.897 51.115-16.422 78.382-16.422 42.009 0 81.657 13.014 115.19 37.723l-272.182 272.18c-24.708-33.534-37.723-73.182-37.723-115.19 0-39.372 11.699-77.305 33.832-109.699 2.336-3.42 1.458-8.087-1.962-10.424z"/><path d="m123.922 418.722c37.042 29.755 83.646 46.142 131.228 46.142 115.636 0 209.713-94.077 209.713-209.713 0-47.582-16.387-94.187-46.142-131.228-1.334-1.661-3.312-2.676-5.44-2.792-2.126-.114-4.204.679-5.71 2.186l-218.765 218.764c-2.929 2.929-2.929 7.678 0 10.606 2.929 2.929 7.678 2.929 10.606 0l212.729-212.727c24.708 33.534 37.723 73.182 37.723 115.19 0 107.365-87.348 194.713-194.713 194.713-42.009 0-81.657-13.014-115.19-37.723l36.824-36.824c2.929-2.929 2.929-7.678 0-10.606-2.929-2.929-7.678-2.929-10.606 0l-42.861 42.861c-1.507 1.506-2.301 3.583-2.186 5.71s1.129 4.106 2.79 5.441z"/><path d="m87.667 266.45v20.468c0 9.285 7.554 16.838 16.838 16.838h35.919c4.142 0 7.5-3.358 7.5-7.5s-3.358-7.5-7.5-7.5h-4.306v-24.145h43.451c4.142 0 7.5-3.358 7.5-7.5s-3.358-7.5-7.5-7.5h-75.065c-9.283.001-16.837 7.555-16.837 16.839zm33.452 22.307h-16.614c-1.014 0-1.838-.825-1.838-1.838v-20.469c0-1.014.825-1.838 1.838-1.838h16.614z"/><path d="m287.663 288.757c-4.142 0-7.5 3.358-7.5 7.5s3.358 7.5 7.5 7.5h118.132c9.285 0 16.838-7.554 16.838-16.838v-20.469c0-9.285-7.554-16.838-16.838-16.838h-78.987c-4.142 0-7.5 3.358-7.5 7.5s3.358 7.5 7.5 7.5h1.268v24.145zm55.413-24.145h62.719c1.014 0 1.838.825 1.838 1.838v20.468c0 1.014-.825 1.838-1.838 1.838h-62.719z"/><path d="m145.297 217.244v9.162c0 4.142 3.358 7.5 7.5 7.5s7.5-3.358 7.5-7.5v-9.162c0-14.384 11.703-26.087 26.087-26.087h28.152c26.254 0 47.614-21.359 47.614-47.614v-20.382c0-4.142-3.358-7.5-7.5-7.5s-7.5 3.358-7.5 7.5v20.382c0 17.983-14.63 32.614-32.614 32.614h-28.152c-22.655 0-41.087 18.431-41.087 41.087z"/><path d="m194.248 121.119c-4.142 0-7.5 3.358-7.5 7.5v9.472c0 4.83-3.929 8.759-8.759 8.759h-4.464c-32.637 0-59.189 26.552-59.189 59.189v20.366c0 4.142 3.358 7.5 7.5 7.5s7.5-3.358 7.5-7.5v-20.366c0-24.366 19.823-44.189 44.189-44.189h4.464c13.101 0 23.759-10.658 23.759-23.759v-9.472c0-4.142-3.358-7.5-7.5-7.5z"/></g></svg>